<?xml version="1.0" encoding="utf-8"?><!-- Uploaded to: SVG Repo, www.svgrepo.com, Generator: SVG Repo Mixer Tools -->
<svg fill="#000000" width="800px" height="800px" viewBox="0 0 24 24" id="download-2" data-name="Flat Line" xmlns="http://www.w3.org/2000/svg" class="icon flat-line"><path id="secondary" d="M5.65,14.56,7,13a1,1,0,0,1,1.41-.11L10,14.34V7h4v7.34l1.64-1.41a1,1,0,0,1,1.41.11l1.3,1.52A1,1,0,0,1,18.24,16l-5.59,4.79a1,1,0,0,1-1.3,0L5.76,16A1,1,0,0,1,5.65,14.56Z" style="fill: rgb(44, 169, 188); stroke-width: 2;"></path><path id="primary" d="M4,7V4A1,1,0,0,1,5,3H19a1,1,0,0,1,1,1V7" style="fill: none; stroke: rgb(0, 0, 0); stroke-linecap: round; stroke-linejoin: round; stroke-width: 2;"></path><path id="primary-2" data-name="primary" d="M5.65,14.56,7,13a1,1,0,0,1,1.41-.11L10,14.34V7h4v7.34l1.64-1.41a1,1,0,0,1,1.41.11l1.3,1.52A1,1,0,0,1,18.24,16l-5.59,4.79a1,1,0,0,1-1.3,0L5.76,16A1,1,0,0,1,5.65,14.56Z" style="fill: none; stroke: rgb(0, 0, 0); stroke-linecap: round; stroke-linejoin: round; stroke-width: 2;"></path></svg>