<?xml version="1.0" encoding="utf-8"?><!-- Uploaded to: SVG Repo, www.svgrepo.com, Generator: SVG Repo Mixer Tools -->
<svg fill="#000000" width="800px" height="800px" viewBox="0 0 24 24" id="import-left" data-name="Flat Color" xmlns="http://www.w3.org/2000/svg" class="icon flat-color"><path id="secondary" d="M21.71,2.29a1,1,0,0,0-1.42,0L12,10.59V9a1,1,0,0,0-2,0v4a1,1,0,0,0,1,1h4a1,1,0,0,0,0-2H13.41l8.3-8.29A1,1,0,0,0,21.71,2.29Z" style="fill: rgb(44, 169, 188);"></path><path id="primary" d="M18,22H4a2,2,0,0,1-2-2V6A2,2,0,0,1,4,4h6.11a1,1,0,0,1,0,2H4V20H18V13.89a1,1,0,0,1,2,0V20A2,2,0,0,1,18,22Z" style="fill: rgb(0, 0, 0);"></path></svg>