<?xml version="1.0" encoding="utf-8"?><!-- Uploaded to: SVG Repo, www.svgrepo.com, Generator: SVG Repo Mixer Tools -->
<svg fill="#000000" width="800px" height="800px" viewBox="0 0 24 24" id="upload-8" data-name="Flat Color" xmlns="http://www.w3.org/2000/svg" class="icon flat-color"><path id="secondary" d="M14.83,9.5,12.69,6.38a.82.82,0,0,0-1.38,0L9.17,9.5A1,1,0,0,0,9.86,11H11V21a1,1,0,0,0,2,0V11h1.14A1,1,0,0,0,14.83,9.5Z" style="fill: rgb(44, 169, 188);"></path><path id="primary" d="M19,17H16a1,1,0,0,1,0-2h3V4H5V15H8a1,1,0,0,1,0,2H5a2,2,0,0,1-2-2V4A2,2,0,0,1,5,2H19a2,2,0,0,1,2,2V15A2,2,0,0,1,19,17Z" style="fill: rgb(0, 0, 0);"></path></svg>